<svg width="605" height="216" viewBox="0 0 605 216" fill="none" xmlns="http://www.w3.org/2000/svg">
<g filter="url(#filter0_d_2631_14751)">
<path d="M283.308 27.1087C283.308 22.3713 279.468 18.5308 274.73 18.5308H229.671C226.056 18.5308 222.791 20.7929 221.758 24.2574C216.054 43.4025 217.57 59.0762 221.825 74.1102C222.834 77.676 226.151 80.0477 229.857 80.0477H274.73C279.468 80.0477 283.308 76.2072 283.308 71.4697V70.2785C283.308 65.541 279.468 61.7005 274.73 61.7005H256.689C253.473 61.7005 250.483 59.9141 249.395 56.8883C248.616 54.721 247.913 52.1793 247.913 50.0621C247.913 47.9438 248.616 45.4006 249.395 43.2322C250.483 40.2063 253.473 38.4197 256.689 38.4197H274.73C279.468 38.4197 283.308 34.5793 283.308 29.8418V27.1087Z" fill="white"/>
<g filter="url(#filter1_d_2631_14751)">
<path d="M318.24 27.1087C318.24 22.3713 314.399 18.5308 309.662 18.5308H265.215C261.307 18.5308 257.866 21.1707 257.038 24.9903C252.891 44.1196 253.408 59.3487 256.926 74.1502C257.807 77.8544 261.193 80.3568 265.001 80.3568H309.662C314.399 80.3568 318.24 76.5163 318.24 71.7789V70.4954C318.24 65.7579 314.399 61.9175 309.662 61.9175H291.332C288.269 61.9175 285.308 60.3323 284.238 57.4625C282.56 52.959 282.668 48.8532 284.349 43.7053C285.4 40.4843 288.566 38.5197 291.955 38.5197H309.662C314.399 38.5197 318.24 34.6792 318.24 29.9417V27.1087Z" fill="white"/>
</g>
<path d="M251.929 103.078C255.087 103.078 257.648 100.518 257.648 97.3593V90.7124C257.648 87.5541 260.208 84.9938 263.366 84.9938H270.713C273.871 84.9938 276.431 87.5541 276.431 90.7124V97.3593C276.431 100.518 278.991 103.078 282.15 103.078H320.249C323.408 103.078 325.968 105.638 325.968 108.797V115.443C325.968 118.602 323.408 121.162 320.249 121.162H220.091C216.932 121.162 214.372 118.602 214.372 115.443V108.797C214.372 105.638 216.932 103.078 220.091 103.078H251.929Z" fill="white"/>
<path d="M220.864 137.927C220.864 135.191 222.768 132.851 225.465 132.395C242.381 129.537 300.665 121.185 310.666 139.864C318.592 154.668 317.289 174.57 316.168 183.461C315.828 186.166 313.495 188.088 310.769 188.088H296.184C292.489 188.088 289.713 184.628 290.218 180.968C291.124 174.399 291.742 164.712 288.943 158.257C285.274 149.796 243.914 154.871 227.509 157.241C224.012 157.746 220.864 155.04 220.864 151.507V137.927Z" fill="white"/>
<path d="M378.942 47.5891H340.226C336.279 47.5891 333.078 50.7894 333.078 54.7373V89.6307V129.006C333.078 132.954 336.279 136.155 340.226 136.155H404.758C408.706 136.155 411.906 132.954 411.906 129.006V117.607C411.906 113.659 408.706 110.458 404.758 110.458H367.155C364.563 110.458 362.46 108.356 362.46 105.763C362.46 103.171 364.562 101.069 367.155 101.069H402.941C406.889 101.069 410.089 97.8681 410.089 93.9202V88.4325C410.089 84.4846 406.889 81.2842 402.941 81.2842H368.566C365.194 81.2842 362.46 78.5508 362.46 75.1789C362.46 71.807 365.194 69.0736 368.566 69.0736H402.941C406.889 69.0736 410.089 65.8732 410.089 61.9253V54.7373C410.089 50.7894 406.889 47.5891 402.941 47.5891H378.942Z" fill="white"/>
<path d="M433.082 72.3722C433.082 75.5305 430.521 78.0908 427.363 78.0908H424.735C421.576 78.0908 419.016 80.6511 419.016 83.8094V97.2047C419.016 100.363 421.576 102.923 424.735 102.923H427.363C430.521 102.923 433.082 105.484 433.082 108.642V175.569C433.082 178.727 435.642 181.288 438.8 181.288H449.466C452.624 181.288 455.184 178.727 455.184 175.569V37.8512C455.184 34.6929 452.624 32.1326 449.466 32.1326H438.8C435.642 32.1326 433.082 34.6929 433.082 37.8512V72.3722Z" fill="white"/>
<path fill-rule="evenodd" clip-rule="evenodd" d="M489.576 27.805C485.764 27.805 482.673 30.8956 482.673 34.708V89.5288C482.673 93.3412 485.764 96.4318 489.576 96.4318H552.641C556.453 96.4318 559.544 93.3412 559.544 89.5288V34.7081C559.544 30.8956 556.453 27.805 552.641 27.805H539.02C535.207 27.805 532.117 30.8956 532.117 34.708L532.117 43.7775C532.117 47.59 529.026 50.6806 525.214 50.6806L514.205 50.6806C510.392 50.6806 507.302 47.59 507.302 43.7776V34.708C507.302 30.8956 504.211 27.805 500.399 27.805H489.576ZM514.205 82.8456C510.392 82.8456 507.302 79.755 507.302 75.9426V72.2103C507.302 68.3978 510.392 65.3072 514.205 65.3072H525.214C529.026 65.3072 532.117 68.3978 532.117 72.2103V75.9426C532.117 79.755 529.026 82.8456 525.214 82.8456H514.205Z" fill="white"/>
<path d="M465.695 110.136C465.695 106.323 468.785 103.233 472.598 103.233H574.097C577.91 103.233 581 106.323 581 110.136V123.438C581 127.251 577.91 130.342 574.097 130.342H557.168C553.355 130.342 550.265 133.432 550.265 137.245V162.378C550.265 166.191 547.174 169.281 543.362 169.281H535.969C532.157 169.281 529.066 166.191 529.066 162.378V135.442C529.066 132.625 526.783 130.342 523.966 130.342C521.149 130.342 518.865 132.625 518.865 135.442V162.378C518.865 166.191 515.775 169.281 511.962 169.281H499.981C496.168 169.281 493.078 166.191 493.078 162.378V137.245C493.078 133.432 489.987 130.342 486.174 130.342H472.598C468.785 130.342 465.695 127.251 465.695 123.438V110.136Z" fill="white"/>
</g>
<circle cx="94.995" cy="101.487" r="87.0033" fill="#F2EA9F"/>
<path d="M8.80148 169.067L52.9336 124.396L105.112 185.254C105.112 185.254 93.9282 188.003 81.6415 187.277C55.8091 185.75 8.80148 169.067 8.80148 169.067Z" fill="#F2EA9F"/>
<ellipse cx="120.49" cy="80.8494" rx="5.66533" ry="8.09333" fill="black"/>
<ellipse cx="140.723" cy="80.8494" rx="5.66533" ry="8.09333" fill="black"/>
<defs>
<filter id="filter0_d_2631_14751" x="191.209" y="1.71661e-05" width="412.955" height="215.884" filterUnits="userSpaceOnUse" color-interpolation-filters="sRGB">
<feFlood flood-opacity="0" result="BackgroundImageFix"/>
<feColorMatrix in="SourceAlpha" type="matrix" values="0 0 0 0 0 0 0 0 0 0 0 0 0 0 0 0 0 0 127 0" result="hardAlpha"/>
<feOffset dy="4.6327"/>
<feGaussianBlur stdDeviation="11.5818"/>
<feComposite in2="hardAlpha" operator="out"/>
<feColorMatrix type="matrix" values="0 0 0 0 0 0 0 0 0 0 0 0 0 0 0 0 0 0 0.25 0"/>
<feBlend mode="normal" in2="BackgroundImageFix" result="effect1_dropShadow_2631_14751"/>
<feBlend mode="normal" in="SourceGraphic" in2="effect1_dropShadow_2631_14751" result="shape"/>
</filter>
<filter id="filter1_d_2631_14751" x="252.252" y="18.5308" width="67.8404" height="65.5322" filterUnits="userSpaceOnUse" color-interpolation-filters="sRGB">
<feFlood flood-opacity="0" result="BackgroundImageFix"/>
<feColorMatrix in="SourceAlpha" type="matrix" values="0 0 0 0 0 0 0 0 0 0 0 0 0 0 0 0 0 0 127 0" result="hardAlpha"/>
<feOffset dy="1.85308"/>
<feGaussianBlur stdDeviation="0.92654"/>
<feComposite in2="hardAlpha" operator="out"/>
<feColorMatrix type="matrix" values="0 0 0 0 0 0 0 0 0 0 0 0 0 0 0 0 0 0 0.25 0"/>
<feBlend mode="normal" in2="BackgroundImageFix" result="effect1_dropShadow_2631_14751"/>
<feBlend mode="normal" in="SourceGraphic" in2="effect1_dropShadow_2631_14751" result="shape"/>
</filter>
</defs>
</svg>
